{
    "accessors" : [
        {
            "bufferView" : 0,
            "componentType" : 5123,
            "count" : 6024,
            "max" : [
                3356
            ],
            "min" : [
                0
            ],
            "type" : "SCALAR"
        },
        {
            "bufferView" : 1,
            "componentType" : 5126,
            "count" : 3357,
            "max" : [
                12.889256477355957,
                4.21444034576416,
                12.88925552368164
            ],
            "min" : [
                -12.889261245727539,
                -2.7855594158172607,
                -12.889263153076172
            ],
            "type" : "VEC3"
        },
        {
            "bufferView" : 2,
            "componentType" : 5126,
            "count" : 3357,
            "max" : [
                1.0,
                1.0,
                1.0
            ],
            "min" : [
                -1.0,
                -1.0,
                -1.0
            ],
            "type" : "VEC3"
        }
    ],
    "asset" : {
        "generator" : "Khronos Blender glTF 2.0 exporter",
        "version" : "2.0"
    },
    "bufferViews" : [
        {
            "buffer" : 0,
            "byteLength" : 12048,
            "byteOffset" : 0,
            "target" : 34963
        },
        {
            "buffer" : 0,
            "byteLength" : 40284,
            "byteOffset" : 12048,
            "target" : 34962
        },
        {
            "buffer" : 0,
            "byteLength" : 40284,
            "byteOffset" : 52332,
            "target" : 34962
        }
    ],
    "buffers" : [
        {
            "byteLength" : 92616,
            "uri" : "24gear.bin"
        }
    ],
    "meshes" : [
        {
            "name" : "bbStock24TGear",
            "primitives" : [
                {
                    "attributes" : {
                        "NORMAL" : 2,
                        "POSITION" : 1
                    },
                    "indices" : 0
                }
            ]
        }
    ],
    "nodes" : [
        {
            "mesh" : 0,
            "name" : "bbStock24TGear",
            "scale" : [
                0.12205344438552856,
                0.12205344438552856,
                0.12205344438552856
            ],
            "translation" : [
                0.0,
                0.4476509988307953,
                -0.0
            ]
        }
    ],
    "scene" : 0,
    "scenes" : [
        {
            "name" : "Scene",
            "nodes" : [
                0
            ]
        }
    ]
}
