# Blender v2.79 (sub 0) OBJ File: 'engrenagens.blend'
# www.blender.org
mtllib gear8.mtl
o bbStock8TGearBVL_bbStock8TGearBVL.002
v 0.035422 0.251873 -0.077039
v 0.050147 0.177830 -0.070940
v 0.035422 0.177830 -0.077039
v 0.050147 0.251873 -0.070940
v -0.030023 0.288894 -0.041935
v -0.021024 0.140809 -0.045662
v -0.030023 0.140809 -0.041935
v -0.021024 0.288894 -0.045662
v 0.041966 0.288894 -0.041935
v 0.041966 0.140809 -0.041935
v -0.033750 0.288894 0.021056
v -0.030023 0.140809 0.030055
v -0.030023 0.288894 0.030055
v -0.033750 0.140809 0.021056
v 0.056876 0.140809 -0.005940
v 0.053149 0.288894 0.003059
v 0.053149 0.140809 0.003059
v 0.056876 0.288894 -0.005940
v 0.017518 0.288894 0.037151
v 0.024482 0.140809 0.034266
v 0.017518 0.140809 0.037151
v 0.024482 0.288894 0.034266
v -0.071227 0.251873 0.008785
v -0.065128 0.177830 0.023511
v -0.065128 0.251873 0.023511
v -0.071227 0.177830 0.008785
v 0.083170 0.177830 -0.020665
v 0.083170 0.251873 -0.020665
v 0.005972 0.288894 0.038671
v 0.005972 0.140809 0.038671
v 0.046177 0.288894 -0.024450
v 0.049062 0.140809 -0.017486
v 0.049062 0.288894 -0.017486
v 0.046177 0.140809 -0.024450
v 0.045694 0.288894 -0.032936
v 0.077071 0.177830 -0.035390
v 0.045694 0.140809 -0.032936
v 0.077071 0.251873 -0.035390
v 0.024482 0.288894 -0.046146
v 0.024482 0.140809 -0.024450
v 0.024482 0.288894 -0.024450
v 0.024482 0.140809 -0.046146
v -0.038204 0.177830 0.059060
v -0.038204 0.251873 0.059060
v -0.041205 0.288894 -0.014938
v -0.065128 0.177830 -0.035390
v -0.041205 0.140809 -0.014938
v -0.065128 0.251873 -0.035390
v 0.005972 0.288894 0.044965
v 0.020697 0.177830 0.071259
v 0.020697 0.251873 0.071259
v 0.005972 0.140809 0.044965
v 0.014970 0.140809 -0.053117
v 0.014970 0.288894 -0.053117
v -0.012539 0.288894 0.034266
v -0.005574 0.140809 0.037151
v -0.012539 0.140809 0.034266
v -0.005574 0.288894 0.037151
v -0.044933 0.288894 -0.005940
v -0.044933 0.140809 -0.005940
v 0.005972 0.288894 -0.050550
v -0.005574 0.140809 -0.049030
v 0.005972 0.140809 -0.050550
v -0.005574 0.288894 -0.049030
v -0.003027 0.140809 0.041237
v -0.023479 0.251873 0.065160
v -0.023479 0.177830 0.065160
v -0.003027 0.288894 0.041237
v 0.017518 0.288894 -0.049030
v 0.017518 0.140809 -0.049030
v -0.034234 0.140809 -0.024450
v -0.037119 0.288894 -0.017486
v -0.037119 0.140809 -0.017486
v -0.034234 0.288894 -0.024450
v -0.012539 0.140809 0.012571
v -0.012539 0.288894 0.012571
v 0.049062 0.288894 0.005606
v 0.046177 0.140809 0.012571
v 0.046177 0.288894 0.012571
v 0.049062 0.140809 0.005606
v -0.023479 0.251873 -0.077039
v -0.023479 0.177830 -0.077039
v 0.035422 0.177830 0.065160
v 0.032968 0.140809 0.033782
v -0.034234 0.288894 0.012571
v -0.034234 0.140809 0.012571
v -0.038639 0.288894 -0.005940
v -0.038639 0.140809 -0.005940
v 0.077071 0.177830 0.023511
v 0.070972 0.251873 0.038236
v 0.070972 0.177830 0.038236
v 0.077071 0.251873 0.023511
v 0.024482 0.288894 0.012571
v 0.024482 0.140809 0.012571
v -0.008753 0.177830 -0.083138
v -0.008753 0.251873 -0.083138
v -0.012539 0.140809 -0.046146
v -0.012539 0.288894 -0.046146
v 0.041966 0.288894 0.030055
v 0.041966 0.140809 0.030055
v 0.032968 0.288894 0.033782
v 0.050582 0.288894 -0.005940
v 0.050582 0.140809 -0.005940
v 0.005972 0.140809 -0.056844
v 0.005972 0.288894 -0.056844
v -0.012539 0.288894 -0.024450
v -0.012539 0.140809 -0.024450
v 0.035422 0.251873 0.065160
v -0.059028 0.251873 -0.050115
v -0.059028 0.177830 -0.050115
v -0.037119 0.288894 0.005606
v -0.037119 0.140809 0.005606
vn 0.3827 0.0000 -0.9239
vn -0.3827 0.0000 -0.9239
vn 0.9625 0.0000 0.2715
vn -0.9239 0.0000 0.3827
vn 0.9239 0.0000 0.3827
vn 0.4886 0.0000 0.8725
vn -0.1305 0.0000 -0.9914
vn -0.0780 0.0000 -0.9970
vn -1.0000 0.0000 0.0000
vn -0.9625 0.0000 -0.2715
vn -0.6498 0.0000 0.7601
vn -0.8725 0.0000 0.4886
vn -0.7601 0.0000 -0.6498
vn -0.4886 0.0000 -0.8725
vn 0.1305 0.0000 0.9914
vn 0.7601 0.0000 0.6498
vn -0.3827 0.0000 0.9239
vn -0.1305 0.0000 0.9914
vn 1.0000 0.0000 0.0000
vn -0.9239 0.0000 -0.3827
vn 0.9239 0.0000 -0.3827
vn -0.9970 0.0000 0.0780
vn 0.2976 -0.6287 0.7185
vn 0.1305 0.0000 -0.9914
vn 0.0000 0.0000 -1.0000
vn 0.9914 0.0000 0.1305
vn 0.3827 0.0000 0.9239
vn 0.0000 0.0000 1.0000
vn 0.6498 0.0000 -0.7601
vn -0.9914 0.0000 -0.1305
vn 0.8725 0.0000 -0.4886
vn 0.9970 0.0000 -0.0780
vn 0.0780 0.0000 0.9970
vn -0.2715 0.0000 0.9625
vn 0.2715 0.0000 -0.9625
vn 0.7185 0.6287 0.2976
vn 0.9914 0.0000 -0.1305
vn -0.9914 0.0000 0.1305
vn 0.7185 -0.6287 0.2976
vn -0.2976 -0.6287 0.7185
vn -0.2976 -0.6287 -0.7185
vn -0.7185 -0.6287 0.2976
vn -0.7185 -0.6287 -0.2976
vn 0.7185 -0.6287 -0.2976
vn 0.2976 -0.6287 -0.7185
vn 0.0000 -1.0000 0.0000
vn 0.7185 0.6287 -0.2976
vn 0.2976 0.6287 -0.7185
vn -0.2976 0.6287 -0.7185
vn -0.2976 0.6287 0.7185
vn 0.2976 0.6287 0.7185
vn -0.7185 0.6287 0.2976
vn -0.7185 0.6287 -0.2976
vn 0.0000 1.0000 0.0000
usemtl Material.006
s off
f 1//1 2//1 3//1
f 2//1 1//1 4//1
f 5//2 6//2 7//2
f 6//2 5//2 8//2
f 2//3 9//3 10//3
f 9//3 2//3 4//3
f 11//4 12//4 13//4
f 12//4 11//4 14//4
f 15//5 16//5 17//5
f 16//5 15//5 18//5
f 19//2 20//2 21//2
f 20//2 19//2 22//2
f 23//4 24//4 25//4
f 24//4 23//4 26//4
f 27//6 18//6 15//6
f 18//6 27//6 28//6
f 29//7 21//7 30//7
f 21//7 29//7 19//7
f 31//4 32//4 33//4
f 32//4 31//4 34//4
f 35//8 36//8 37//8
f 36//8 35//8 38//8
f 39//9 40//9 41//9
f 40//9 39//9 42//9
f 13//10 43//10 44//10
f 43//10 13//10 12//10
f 45//11 46//11 47//11
f 46//11 45//11 48//11
f 49//12 50//12 51//12
f 50//12 49//12 52//12
f 1//13 53//13 54//13
f 53//13 1//13 3//13
f 55//1 56//1 57//1
f 56//1 55//1 58//1
f 26//14 59//14 60//14
f 59//14 26//14 23//14
f 61//15 62//15 63//15
f 62//15 61//15 64//15
f 65//16 66//16 67//16
f 66//16 65//16 68//16
f 49//17 65//17 52//17
f 65//17 49//17 68//17
f 69//18 63//18 70//18
f 63//18 69//18 61//18
f 71//5 72//5 73//5
f 72//5 71//5 74//5
f 75//19 55//19 57//19
f 55//19 75//19 76//19
f 77//20 78//20 79//20
f 78//20 77//20 80//20
f 36//21 28//21 27//21
f 28//21 36//21 38//21
f 81//22 6//22 8//22
f 6//22 81//22 82//22
f 83//23 52//23 84//23
f 52//23 83//23 50//23
f 58//24 30//24 56//24
f 30//24 58//24 29//24
f 85//25 75//25 86//25
f 75//25 85//25 76//25
f 73//26 87//26 88//26
f 87//26 73//26 72//26
f 89//5 90//5 91//5
f 90//5 89//5 92//5
f 93//25 78//25 94//25
f 78//25 93//25 79//25
f 81//2 95//2 82//2
f 95//2 81//2 96//2
f 64//27 97//27 62//27
f 97//27 64//27 98//27
f 31//28 40//28 34//28
f 40//28 31//28 41//28
f 99//27 84//27 100//27
f 84//27 99//27 101//27
f 10//21 35//21 37//21
f 35//21 10//21 9//21
f 45//20 60//20 59//20
f 60//20 45//20 47//20
f 16//29 89//29 17//29
f 89//29 16//29 92//29
f 102//30 80//30 77//30
f 80//30 102//30 103//30
f 104//31 96//31 105//31
f 96//31 104//31 95//31
f 93//9 20//9 22//9
f 20//9 93//9 94//9
f 97//19 106//19 107//19
f 106//19 97//19 98//19
f 39//17 70//17 42//17
f 70//17 39//17 69//17
f 84//32 108//32 83//32
f 108//32 84//32 101//32
f 108//27 50//27 83//27
f 50//27 108//27 51//27
f 11//33 24//33 14//33
f 24//33 11//33 25//33
f 106//28 71//28 107//28
f 71//28 106//28 74//28
f 66//17 43//17 67//17
f 43//17 66//17 44//17
f 109//20 46//20 48//20
f 46//20 109//20 110//20
f 91//34 99//34 100//34
f 99//34 91//34 90//34
f 110//35 5//35 7//35
f 5//35 110//35 109//35
f 92//36 99//36 90//36
f 99//36 92//36 16//36
f 88//37 111//37 112//37
f 111//37 88//37 87//37
f 112//21 85//21 86//21
f 85//21 112//21 111//21
f 33//38 103//38 102//38
f 103//38 33//38 32//38
f 104//1 54//1 53//1
f 54//1 104//1 105//1
f 100//39 89//39 91//39
f 89//39 100//39 17//39
f 67//40 12//40 65//40
f 12//40 67//40 43//40
f 82//41 104//41 6//41
f 104//41 82//41 95//41
f 26//42 14//42 24//42
f 14//42 26//42 60//42
f 46//43 7//43 47//43
f 7//43 46//43 110//43
f 37//44 27//44 15//44
f 27//44 37//44 36//44
f 3//45 10//45 53//45
f 10//45 3//45 2//45
f 104//46 97//46 6//46
f 97//46 104//46 62//46
f 62//46 104//46 63//46
f 63//46 104//46 53//46
f 63//46 53//46 70//46
f 70//46 53//46 10//46
f 70//46 10//46 42//46
f 42//46 10//46 40//46
f 40//46 10//46 34//46
f 34//46 10//46 37//46
f 34//46 37//46 15//46
f 34//46 15//46 32//46
f 32//46 15//46 103//46
f 103//46 15//46 17//46
f 78//46 20//46 94//46
f 20//46 78//46 84//46
f 84//46 78//46 100//46
f 100//46 78//46 17//46
f 17//46 78//46 80//46
f 17//46 80//46 103//46
f 60//46 112//46 14//46
f 112//46 60//46 47//46
f 112//46 47//46 88//46
f 14//46 112//46 86//46
f 14//46 86//46 75//46
f 14//46 75//46 12//46
f 12//46 75//46 57//46
f 12//46 57//46 65//46
f 65//46 57//46 56//46
f 65//46 56//46 30//46
f 65//46 30//46 52//46
f 52//46 30//46 21//46
f 52//46 21//46 84//46
f 84//46 21//46 20//46
f 47//46 73//46 88//46
f 73//46 47//46 7//46
f 73//46 7//46 71//46
f 71//46 7//46 107//46
f 107//46 7//46 6//46
f 107//46 6//46 97//46
f 28//47 35//47 18//47
f 35//47 28//47 38//47
f 54//48 4//48 1//48
f 4//48 54//48 9//48
f 8//49 96//49 81//49
f 96//49 8//49 105//49
f 68//50 44//50 66//50
f 44//50 68//50 13//50
f 101//51 51//51 108//51
f 51//51 101//51 49//51
f 11//52 23//52 25//52
f 23//52 11//52 59//52
f 5//53 48//53 45//53
f 48//53 5//53 109//53
f 68//54 55//54 13//54
f 55//54 68//54 58//54
f 58//54 68//54 29//54
f 29//54 68//54 49//54
f 29//54 49//54 19//54
f 19//54 49//54 101//54
f 19//54 101//54 22//54
f 22//54 101//54 93//54
f 93//54 101//54 79//54
f 79//54 101//54 99//54
f 79//54 99//54 16//54
f 79//54 16//54 77//54
f 77//54 16//54 102//54
f 31//54 39//54 41//54
f 39//54 31//54 9//54
f 9//54 31//54 35//54
f 35//54 31//54 18//54
f 18//54 31//54 33//54
f 18//54 33//54 102//54
f 18//54 102//54 16//54
f 45//54 72//54 5//54
f 72//54 45//54 87//54
f 5//54 72//54 74//54
f 5//54 74//54 106//54
f 5//54 106//54 8//54
f 8//54 106//54 98//54
f 8//54 98//54 105//54
f 105//54 98//54 64//54
f 105//54 64//54 61//54
f 105//54 61//54 69//54
f 105//54 69//54 54//54
f 54//54 69//54 9//54
f 9//54 69//54 39//54
f 59//54 111//54 45//54
f 111//54 59//54 11//54
f 45//54 111//54 87//54
f 111//54 11//54 85//54
f 85//54 11//54 76//54
f 76//54 11//54 13//54
f 76//54 13//54 55//54
