{
    "accessors" : [
        {
            "bufferView" : 0,
            "componentType" : 5123,
            "count" : 90,
            "max" : [
                89
            ],
            "min" : [
                0
            ],
            "type" : "SCALAR"
        },
        {
            "bufferView" : 1,
            "componentType" : 5126,
            "count" : 90,
            "max" : [
                1.0636240243911743,
                0.2440679967403412,
                0.24084000289440155
            ],
            "min" : [
                0.4780310094356537,
                -0.0017170000355690718,
                0.007344000041484833
            ],
            "type" : "VEC3"
        },
        {
            "bufferView" : 2,
            "componentType" : 5126,
            "count" : 90,
            "max" : [
                0.0,
                0.0,
                1.0
            ],
            "min" : [
                0.0,
                0.0,
                -1.0
            ],
            "type" : "VEC3"
        },
        {
            "bufferView" : 3,
            "componentType" : 5126,
            "count" : 90,
            "max" : [
                1.0,
                1.0,
                4.094823964351235e-07,
                1.0
            ],
            "min" : [
                -1.0,
                -1.0,
                -4.209625785733806e-07,
                1.0
            ],
            "type" : "VEC4"
        },
        {
            "bufferView" : 4,
            "componentType" : 5126,
            "count" : 90,
            "max" : [
                1.0,
                1.0
            ],
            "min" : [
                0.0,
                0.0
            ],
            "type" : "VEC2"
        },
        {
            "bufferView" : 5,
            "componentType" : 5125,
            "count" : 106032,
            "max" : [
                105985
            ],
            "min" : [
                0
            ],
            "type" : "SCALAR"
        },
        {
            "bufferView" : 6,
            "componentType" : 5126,
            "count" : 105986,
            "max" : [
                1.2661219835281372,
                0.4249260127544403,
                0.4313240051269531
            ],
            "min" : [
                -0.38944798707962036,
                -0.4272330105304718,
                -0.18313899636268616
            ],
            "type" : "VEC3"
        },
        {
            "bufferView" : 7,
            "componentType" : 5126,
            "count" : 105986,
            "max" : [
                1.0,
                1.0,
                1.0
            ],
            "min" : [
                -1.0,
                -1.0,
                -1.0
            ],
            "type" : "VEC3"
        },
        {
            "bufferView" : 8,
            "componentType" : 5126,
            "count" : 105986,
            "max" : [
                1.0,
                1.0,
                1.0,
                1.0
            ],
            "min" : [
                -1.0,
                -1.0,
                -1.0,
                -1.0
            ],
            "type" : "VEC4"
        },
        {
            "bufferView" : 9,
            "componentType" : 5126,
            "count" : 105986,
            "max" : [
                1.0,
                1.0
            ],
            "min" : [
                0.0,
                0.0
            ],
            "type" : "VEC2"
        },
        {
            "bufferView" : 10,
            "componentType" : 5123,
            "count" : 456,
            "max" : [
                453
            ],
            "min" : [
                0
            ],
            "type" : "SCALAR"
        },
        {
            "bufferView" : 11,
            "componentType" : 5126,
            "count" : 454,
            "max" : [
                0.31215700507164,
                0.05104000121355057,
                0.40060099959373474
            ],
            "min" : [
                -0.20510900020599365,
                -0.3703950047492981,
                -0.15241600573062897
            ],
            "type" : "VEC3"
        },
        {
            "bufferView" : 12,
            "componentType" : 5126,
            "count" : 454,
            "max" : [
                0.6049989461898804,
                0.0,
                1.0
            ],
            "min" : [
                -1.0,
                -1.0,
                -1.0
            ],
            "type" : "VEC3"
        },
        {
            "bufferView" : 13,
            "componentType" : 5126,
            "count" : 454,
            "max" : [
                1.0,
                1.0,
                1.0,
                1.0
            ],
            "min" : [
                -1.0,
                -0.9969245791435242,
                -1.0,
                1.0
            ],
            "type" : "VEC4"
        },
        {
            "bufferView" : 14,
            "componentType" : 5126,
            "count" : 454,
            "max" : [
                1.0,
                1.0
            ],
            "min" : [
                0.0,
                0.0
            ],
            "type" : "VEC2"
        },
        {
            "bufferView" : 15,
            "componentType" : 5123,
            "count" : 47472,
            "max" : [
                47468
            ],
            "min" : [
                0
            ],
            "type" : "SCALAR"
        },
        {
            "bufferView" : 16,
            "componentType" : 5126,
            "count" : 47469,
            "max" : [
                1.2669819593429565,
                0.41950300335884094,
                0.3041149973869324
            ],
            "min" : [
                0.9117220044136047,
                0.06424299627542496,
                -0.05418099835515022
            ],
            "type" : "VEC3"
        },
        {
            "bufferView" : 17,
            "componentType" : 5126,
            "count" : 47469,
            "max" : [
                1.0,
                1.0,
                1.0
            ],
            "min" : [
                -1.0,
                -1.0,
                -1.0
            ],
            "type" : "VEC3"
        },
        {
            "bufferView" : 18,
            "componentType" : 5126,
            "count" : 47469,
            "max" : [
                1.0,
                1.0,
                1.0,
                1.0
            ],
            "min" : [
                -1.0,
                -1.0,
                -1.0,
                1.0
            ],
            "type" : "VEC4"
        },
        {
            "bufferView" : 19,
            "componentType" : 5126,
            "count" : 47469,
            "max" : [
                1.0,
                1.0
            ],
            "min" : [
                0.0,
                0.0
            ],
            "type" : "VEC2"
        }
    ],
    "asset" : {
        "generator" : "Khronos Blender glTF 2.0 exporter",
        "version" : "2.0"
    },
    "bufferViews" : [
        {
            "buffer" : 0,
            "byteLength" : 180,
            "byteOffset" : 0,
            "target" : 34963
        },
        {
            "buffer" : 0,
            "byteLength" : 1080,
            "byteOffset" : 180,
            "target" : 34962
        },
        {
            "buffer" : 0,
            "byteLength" : 1080,
            "byteOffset" : 1260,
            "target" : 34962
        },
        {
            "buffer" : 0,
            "byteLength" : 1440,
            "byteOffset" : 2340,
            "target" : 34962
        },
        {
            "buffer" : 0,
            "byteLength" : 720,
            "byteOffset" : 3780,
            "target" : 34962
        },
        {
            "buffer" : 0,
            "byteLength" : 424128,
            "byteOffset" : 4500,
            "target" : 34963
        },
        {
            "buffer" : 0,
            "byteLength" : 1271832,
            "byteOffset" : 428628,
            "target" : 34962
        },
        {
            "buffer" : 0,
            "byteLength" : 1271832,
            "byteOffset" : 1700460,
            "target" : 34962
        },
        {
            "buffer" : 0,
            "byteLength" : 1695776,
            "byteOffset" : 2972292,
            "target" : 34962
        },
        {
            "buffer" : 0,
            "byteLength" : 847888,
            "byteOffset" : 4668068,
            "target" : 34962
        },
        {
            "buffer" : 0,
            "byteLength" : 912,
            "byteOffset" : 5515956,
            "target" : 34963
        },
        {
            "buffer" : 0,
            "byteLength" : 5448,
            "byteOffset" : 5516868,
            "target" : 34962
        },
        {
            "buffer" : 0,
            "byteLength" : 5448,
            "byteOffset" : 5522316,
            "target" : 34962
        },
        {
            "buffer" : 0,
            "byteLength" : 7264,
            "byteOffset" : 5527764,
            "target" : 34962
        },
        {
            "buffer" : 0,
            "byteLength" : 3632,
            "byteOffset" : 5535028,
            "target" : 34962
        },
        {
            "buffer" : 0,
            "byteLength" : 94944,
            "byteOffset" : 5538660,
            "target" : 34963
        },
        {
            "buffer" : 0,
            "byteLength" : 569628,
            "byteOffset" : 5633604,
            "target" : 34962
        },
        {
            "buffer" : 0,
            "byteLength" : 569628,
            "byteOffset" : 6203232,
            "target" : 34962
        },
        {
            "buffer" : 0,
            "byteLength" : 759504,
            "byteOffset" : 6772860,
            "target" : 34962
        },
        {
            "buffer" : 0,
            "byteLength" : 379752,
            "byteOffset" : 7532364,
            "target" : 34962
        }
    ],
    "buffers" : [
        {
            "byteLength" : 7912116,
            "uri" : "motor.bin"
        }
    ],
    "materials" : [
        {
            "alphaMode" : "BLEND",
            "name" : "Material.001",
            "pbrMetallicRoughness" : {
                "metallicFactor" : 0.0
            }
        },
        {
            "alphaMode" : "BLEND",
            "name" : "Material.002",
            "pbrMetallicRoughness" : {
                "baseColorFactor" : [
                    0.3493260145187378,
                    0.3493260145187378,
                    0.3493260145187378,
                    1.0
                ],
                "metallicFactor" : 0.0
            }
        },
        {
            "alphaMode" : "BLEND",
            "name" : "Material.003",
            "pbrMetallicRoughness" : {
                "baseColorFactor" : [
                    0.16999000310897827,
                    0.16999000310897827,
                    0.16999000310897827,
                    1.0
                ],
                "metallicFactor" : 0.0
            }
        },
        {
            "alphaMode" : "BLEND",
            "name" : "Material.004",
            "pbrMetallicRoughness" : {
                "baseColorFactor" : [
                    0.6399999856948853,
                    0.016106000170111656,
                    0.005109000019729137,
                    1.0
                ],
                "metallicFactor" : 0.0
            }
        }
    ],
    "meshes" : [
        {
            "name" : "motor",
            "primitives" : [
                {
                    "attributes" : {
                        "NORMAL" : 2,
                        "POSITION" : 1,
                        "TANGENT" : 3,
                        "TEXCOORD_0" : 4
                    },
                    "indices" : 0,
                    "material" : 2
                },
                {
                    "attributes" : {
                        "NORMAL" : 7,
                        "POSITION" : 6,
                        "TANGENT" : 8,
                        "TEXCOORD_0" : 9
                    },
                    "indices" : 5,
                    "material" : 1
                },
                {
                    "attributes" : {
                        "NORMAL" : 12,
                        "POSITION" : 11,
                        "TANGENT" : 13,
                        "TEXCOORD_0" : 14
                    },
                    "indices" : 10,
                    "material" : 0
                }
            ]
        },
        {
            "name" : "eixo",
            "primitives" : [
                {
                    "attributes" : {
                        "NORMAL" : 17,
                        "POSITION" : 16,
                        "TANGENT" : 18,
                        "TEXCOORD_0" : 19
                    },
                    "indices" : 15,
                    "material" : 3
                }
            ]
        }
    ],
    "nodes" : [
        {
            "mesh" : 1,
            "name" : "eixo",
            "rotation" : [
                0.7071068286895752,
                0.0,
                -0.0,
                0.7071067094802856
            ]
        },
        {
            "mesh" : 0,
            "name" : "motor",
            "rotation" : [
                0.7071068286895752,
                0.0,
                -0.0,
                0.7071067094802856
            ]
        }
    ],
    "scene" : 0,
    "scenes" : [
        {
            "name" : "Scene",
            "nodes" : [
                1,
                0
            ]
        }
    ]
}
